<svg version="1.1" id="Layer_1" xmlns="http://www.w3.org/2000/svg" x="0" y="0" viewBox="0 0 72.77 16.46" xml:space="preserve"><style>.st0{fill:#fbfbfc}</style><path class="st0" d="M33.13 11.55c0 1.6-1.36 2.97-3.94 2.97a5.1 5.1 0 01-3.97-1.6l1.34-1.55c.73.81 1.64 1.2 2.77 1.2.93 0 1.4-.39 1.4-.98 0-1.7-5.08-.88-5.08-4.28 0-1.44 1.23-2.83 3.64-2.83 1.7 0 3.05.57 3.76 1.56L31.7 7.47a2.88 2.88 0 00-2.34-1.05c-.83 0-1.32.38-1.32.9 0 1.65 5.1.68 5.1 4.23zM34 4.76h1.68V2.3h2.42v2.46h2.57v2.13h-2.55v4.02c0 .9.37 1.33 1.09 1.33.43 0 .87-.2 1.1-.48l1.1 1.8c-.54.52-1.43.96-2.6.96-1.92 0-3.15-1.21-3.15-3.53V6.9H34V4.76zM42.38 2.07c0-.78.63-1.43 1.4-1.43.8 0 1.43.65 1.43 1.43 0 .79-.63 1.4-1.43 1.4a1.4 1.4 0 01-1.4-1.4zm2.63 12.17H42.6V4.76H45v9.48zM46.29 4.76h1.68V2.3h2.41v2.46h2.58v2.13H50.4v4.02c0 .9.38 1.33 1.1 1.33.43 0 .86-.2 1.1-.48l1.09 1.8c-.54.52-1.43.96-2.6.96-1.91 0-3.14-1.21-3.14-3.53V6.9h-1.66V4.76zM59.17 6.76c-1.58 0-2.65 1.2-2.65 2.73s1.09 2.75 2.63 2.75c.97 0 1.74-.34 2.34-.93l1.22 1.78a4.98 4.98 0 01-3.62 1.43A4.97 4.97 0 0154.1 9.5a4.97 4.97 0 014.95-5.03c1.62 0 2.91.55 3.74 1.43l-1.38 1.72c-.6-.58-1.3-.87-2.24-.87zM66.5 14.24h-2.42V.62h2.42v5.07c.6-.77 1.5-1.21 2.67-1.21 2.2 0 3.6 1.54 3.6 4.02v5.74h-2.41V8.85c0-1.28-.75-2.1-1.92-2.1-1.2 0-1.94.82-1.94 2.1v5.39z"/><path d="M15.35 0H10.6a5.86 5.86 0 00-5.76 4.84 5.86 5.86 0 001.01 11.62h4.75c2.89 0 5.28-2.1 5.77-4.84A5.86 5.86 0 0015.35 0zm.97 9.36c-.2-.9-.59-1.7-1.14-2.4h.17a1.1 1.1 0 100-2.21H10.6a1.1 1.1 0 100 2.21 3.64 3.64 0 010 7.28H5.86a3.64 3.64 0 01-.98-7.14c.2.89.6 1.7 1.15 2.4h-.17a1.1 1.1 0 100 2.21h4.74a1.1 1.1 0 100-2.21 3.64 3.64 0 010-7.28h4.75a3.64 3.64 0 01.97 7.14z" fill="#5d56d1"/></svg>