<?xml version="1.0" encoding="utf-8"?>
<!-- Generator: Adobe Illustrator 21.0.0, SVG Export Plug-In . SVG Version: 6.00 Build 0)  -->
<svg version="1.1" id="Layer_1" xmlns="http://www.w3.org/2000/svg" xmlns:xlink="http://www.w3.org/1999/xlink" x="0px" y="0px"
	 viewBox="0 0 600 194.7" style="enable-background:new 0 0 600 194.7;" xml:space="preserve">
<style type="text/css">
	.st0{fill:#962D45;}
	.st1{fill:#FFFFFF;}
	.st2{fill:#7D868C;}
</style>
<g>
	<path class="st0" d="M76.6,36.9c-0.5,1.4-1.2,3.1-2,4.9c-1.6,3.6-3.7,7.8-6.5,12.3c-2.9,4.5-6.4,9.3-10.7,14.5
		c-4.2,5.1-9.5,11.1-14.5,17.3c-8,10-19.4,21.5-20,43c-0.3,14.8,6.5,34,27.4,43.8c14.5,6.6,30,5.2,41.5,0.2
		c16.4-7.2,25.9-20.5,25.9-38.4c0-21.3-16.3-39-30.3-44.3c-0.7,1.9-1.5,4-2.5,6.1c14,5,25.5,18.5,26,37.2
		c0.5,19.4-15.9,34.8-35.2,35.4c-17,0-24.8-7.7-29.2-12.5c-4-4.3-7.9-12.4-8.7-20.6c-1.1-14.8,4.3-24.8,9.3-32.3
		c7.8-11.6,23.4-31.8,28.8-45.1c2.2-5.6,3.2-11,3.8-15.1c0.3-2.1,0.5-3.9,0.6-5.5c0-0.8,0.1-1.5,0.1-2.2c0-0.7,0-1.3,0-1.9
		c0-1.1-0.1-1.9-0.1-2.5c0-0.6-0.1-0.9-0.1-0.9l-1.5-0.1c0,0-0.1,0.3-0.2,0.8c-0.2,0.5-0.4,1.3-0.7,2.3
		C77.5,34.2,77.1,35.5,76.6,36.9"/>
	<path class="st0" d="M53,108.5c-8.7,13-8.3,21.6-6.6,30.1c0.6,2.8,1.8,5.6,3.2,8c5.1,9.4,15,15.8,26.3,15.8
		c16.5,0,29.3-13.5,29.9-30c0.5-13.1-9.3-27.9-22.7-32.4c-0.9,1.8-1.9,3.7-3,5.6c5.8,2.7,16.4,9.5,17.7,23.3
		c1.4,12-6.2,23-17.7,24.6c-9.4,1.3-18.3-4.2-22-12.8c-3.6-9.1-3-17,11.8-37.5C85.4,81.6,85.1,65.2,85.1,65c0-2.2-0.7-7.7-0.7-7.7
		l-1.3,0c0,0-0.2,0.8-0.6,2.1c-0.2,0.7-0.4,1.5-0.7,2.5c-0.2,0.5-0.3,1-0.5,1.6c-0.2,0.6-0.4,1.1-0.6,1.8c-0.9,2.5-2.1,5.1-3.5,8.6
		C72.1,86.4,57.1,102.4,53,108.5"/>
	<path class="st0" d="M27.7,165.5c11.5,13.8,27.7,19.2,40.3,19.5c28,0.2,53.7-18.2,54.3-50.3c0.4-22-17.2-42.2-33.6-48.4
		c0.7-2.2,1.2-4.3,1.6-6.2c22.4,8.5,38,29.8,38.2,55.2c0.2,15.2-6.6,31.2-18.1,41.9c-13.8,12.9-30.5,19.1-51.5,17.1
		c-8.5-1.1-18-3.4-29-10.4c-11.2-7.2-31.2-26-29.9-60.5c0.3-4.1,0.6-8.3,1.6-12.4c0.9-4.1,2.3-8,3.9-11.8c1.6-3.8,3.6-7.4,5.7-10.8
		s4.4-6.6,6.8-9.7c2.4-3.1,4.9-6,7.5-8.8c2.6-2.8,5.1-5.6,7.7-8.3l7.8-8c5.1-5.3,10.2-10.5,14.8-16c2.3-2.7,4.5-5.6,6.6-8.5
		c2.1-2.9,4.1-5.9,5.8-9c1.8-3.1,3.4-6.3,4.8-9.7c0.3-0.8,0.7-1.7,1-2.5l0.9-2.6L76,2.7c0.3-0.9,0.5-1.8,0.8-2.7l1.5,0.2
		c0,0.9,0,1.9,0,2.9l-0.2,2.9c-0.2,1.9-0.4,3.8-0.7,5.7c-0.6,3.8-1.6,7.6-2.9,11.2c-1.3,3.7-2.8,7.3-4.5,10.7
		c-1.7,3.5-3.7,6.8-5.7,10.1c-4.1,6.5-8.7,12.7-13.4,18.5c-2.3,3-4.7,5.8-7.1,8.7c-2.3,2.9-4.7,5.7-6.9,8.5
		c-2.3,2.8-4.4,5.7-6.5,8.5c-2.1,2.9-4,5.7-5.8,8.7c-5.7,9.1-8.8,15.4-10.2,27.7C14.3,124.3,11.2,146.3,27.7,165.5"/>
	<path class="st0" d="M517.9,141.3c3.5,0,6.2-2.8,6.2-6.2s-2.8-6.2-6.2-6.2s-6.2,2.8-6.2,6.2S514.5,141.3,517.9,141.3"/>
	<path class="st0" d="M600,143L600,143c0-10.2,0-1.2,0-11.4c0-5.6-1.9-10.5-6.3-14.4c-2-1.8-3-4-3-6.6c0-1.4-0.1-7.5-0.1-8.4V90.8
		h-11.4v11.2c0,0.9-0.1,7-0.1,8.4c0,2.6-1,4.8-3,6.6c-4.4,4-6.3,8.8-6.3,14.4c0,10.2,0,1.2,0,11.4h0c0,9.8,0,26.7,0,36.5h14.9h0.6
		H600C600,169.7,600,152.8,600,143"/>
	<path class="st0" d="M517.9,126.1c3.5,0,6.2-2.8,6.2-6.2s-2.8-6.2-6.2-6.2s-6.2,2.8-6.2,6.2S514.5,126.1,517.9,126.1"/>
	<path class="st0" d="M517.9,110.9c3.5,0,6.2-2.8,6.2-6.2s-2.8-6.2-6.2-6.2s-6.2,2.8-6.2,6.2S514.5,110.9,517.9,110.9"/>
	<path class="st0" d="M517.9,156.5c3.5,0,6.2-2.8,6.2-6.2c0-3.5-2.8-6.2-6.2-6.2s-6.2,2.8-6.2,6.2
		C511.7,153.7,514.5,156.5,517.9,156.5"/>
	<path class="st0" d="M517.9,171.7c3.5,0,6.2-2.8,6.2-6.2c0-3.5-2.8-6.2-6.2-6.2s-6.2,2.8-6.2,6.2
		C511.7,169,514.5,171.7,517.9,171.7"/>
	<path class="st0" d="M508.9,135.1c0-3.5-2.8-6.2-6.2-6.2c-3.5,0-6.2,2.8-6.2,6.2s2.8,6.2,6.2,6.2
		C506.1,141.3,508.9,138.5,508.9,135.1"/>
	<path class="st0" d="M493.7,135.1c0-3.5-2.8-6.2-6.2-6.2c-3.5,0-6.2,2.8-6.2,6.2s2.8,6.2,6.2,6.2
		C490.9,141.3,493.7,138.5,493.7,135.1"/>
	<path class="st0" d="M524.2,135.1c0-3.5-2.8-6.2-6.2-6.2s-6.2,2.8-6.2,6.2s2.8,6.2,6.2,6.2S524.2,138.5,524.2,135.1"/>
	<path class="st0" d="M539.4,135.1c0-3.5-2.8-6.2-6.2-6.2c-3.5,0-6.2,2.8-6.2,6.2s2.8,6.2,6.2,6.2
		C536.6,141.3,539.4,138.5,539.4,135.1"/>
	<path class="st0" d="M554.6,135.1c0-3.5-2.8-6.2-6.2-6.2c-3.5,0-6.2,2.8-6.2,6.2s2.8,6.2,6.2,6.2
		C551.8,141.3,554.6,138.5,554.6,135.1"/>
	<polygon class="st1" points="227.2,98.4 227.2,90.8 242.4,90.8 242.4,98.4 242.4,171.9 242.4,179.5 227.2,179.5 227.2,171.9 	"/>
	<polygon class="st1" points="272.6,179.5 257.5,179.5 257.5,90.8 269,90.8 309.3,148.1 309.4,90.8 324.5,90.8 324.4,179.5 
		313,179.5 272.6,122.3 	"/>
	<polygon class="st2" points="354.8,142.7 386.3,142.7 390.5,142.7 390.5,127.6 386.3,127.6 354.8,127.6 354.8,106 400.9,106 
		391.1,92 390.3,90.8 354.8,90.8 347.2,90.8 339.7,90.8 339.7,98.4 339.7,106 339.7,127.6 339.7,142.7 339.7,164.4 339.7,171.9 
		339.7,179.5 347.2,179.5 354.8,179.5 390.3,179.5 391.1,178.3 400.9,164.4 354.8,164.4 	"/>
	<polygon class="st1" points="136.1,90.8 152.6,90.8 177.9,152 203,90.8 219.3,90.8 183,179.5 172.8,179.5 	"/>
	<polygon class="st2" points="431.7,135.2 401.5,178.3 400.7,179.5 419.1,179.5 441,148.4 462.8,179.5 481.2,179.5 480.4,178.3 
		450.2,135.2 480.4,92 481.2,90.8 462.8,90.8 441,122 419.1,90.8 400.7,90.8 401.5,92 	"/>
	<path class="st2" d="M487.5,97.6h0.3c0.4,0,0.7-0.1,0.9-0.3c0.2-0.2,0.3-0.5,0.3-0.9c0-0.4-0.1-0.7-0.3-0.9
		c-0.2-0.2-0.5-0.3-0.9-0.3h-0.3V97.6z M491.3,96.3c0,1.1-0.5,1.9-1.4,2.3l2.3,3.9h-2.5l-1.7-3.3h-0.5v3.3h-2.2v-9h2.6
		c1.2,0,2.1,0.2,2.6,0.7C491,94.7,491.3,95.4,491.3,96.3 M482.3,98c0,1.1,0.3,2.1,0.8,3c0.5,0.9,1.3,1.7,2.2,2.2
		c0.9,0.5,1.9,0.8,3,0.8c1.1,0,2.1-0.3,3-0.8c0.9-0.5,1.7-1.3,2.2-2.2c0.5-0.9,0.8-1.9,0.8-3c0-1.1-0.3-2.1-0.8-3
		c-0.5-0.9-1.3-1.7-2.2-2.2c-0.9-0.5-1.9-0.8-3-0.8c-1.1,0-2.1,0.3-3,0.8c-0.9,0.5-1.7,1.3-2.2,2.2C482.6,96,482.3,97,482.3,98
		 M480.9,98c0-1.3,0.3-2.5,1-3.7c0.7-1.1,1.6-2,2.7-2.7c1.1-0.7,2.4-1,3.7-1c1.3,0,2.5,0.3,3.7,1c1.1,0.7,2,1.6,2.7,2.7
		c0.7,1.1,1,2.4,1,3.7c0,1.3-0.3,2.5-1,3.6c-0.6,1.1-1.5,2-2.7,2.7c-1.1,0.7-2.4,1-3.8,1c-1.4,0-2.6-0.3-3.7-1
		c-1.1-0.7-2-1.6-2.7-2.7C481.2,100.6,480.9,99.3,480.9,98"/>
</g>
</svg>
