<?xml version="1.0" encoding="utf-8"?>
<svg version="1.1" id="Layer_1" xmlns="http://www.w3.org/2000/svg" xmlns:xlink="http://www.w3.org/1999/xlink" x="0px" y="0px"
	 viewBox="0 0 293.8 68" style="enable-background:new 0 0 293.8 68;" xml:space="preserve">
<style type="text/css">
	.st0{fill:#494946;}
	.st1{fill:none;stroke:#AA6F35;stroke-miterlimit:10;}
	.st2{fill:url(#SVGID_1_);}
	.st3{fill:url(#SVGID_2_);}
	.st4{fill:url(#SVGID_3_);}
	.st5{fill:url(#SVGID_4_);}
	.st6{fill:url(#SVGID_5_);}
	.st7{fill:url(#SVGID_6_);}
	.st8{fill:url(#SVGID_7_);}
	.st9{fill:url(#SVGID_8_);}
	.st10{fill:url(#SVGID_9_);}
	.st11{fill:url(#SVGID_10_);}
	.st12{fill:url(#SVGID_11_);}
</style>
<g id="New_Symbol_4_">
</g>
<g id="New_Symbol_3_">
</g>
<g id="New_Symbol_2_">
</g>
<g id="New_Symbol_5_">
</g>
<g id="New_Symbol_6_">
</g>
<g id="New_Symbol">
</g>
<g id="New_Symbol_1_">
</g>
<g id="New_Symbol_41_">
</g>
<g id="New_Symbol_40_">
</g>
<g id="New_Symbol_39_">
</g>
<g id="New_Symbol_38_">
</g>
<g id="New_Symbol_37_">
</g>
<g id="New_Symbol_36_">
</g>
<g id="New_Symbol_35_">
</g>
<g id="New_Symbol_34_">
</g>
<g id="New_Symbol_33_">
</g>
<g id="New_Symbol_32_">
</g>
<g id="New_Symbol_31_">
</g>
<g id="New_Symbol_30_">
</g>
<g id="New_Symbol_29_">
</g>
<g id="New_Symbol_28_">
</g>
<g id="New_Symbol_27_">
</g>
<g id="New_Symbol_26_">
</g>
<g id="New_Symbol_25_">
</g>
<g id="New_Symbol_24_">
</g>
<g id="New_Symbol_23_">
</g>
<g id="New_Symbol_22_">
</g>
<g id="New_Symbol_21_">
</g>
<g id="New_Symbol_20_">
</g>
<g id="New_Symbol_19_">
</g>
<g id="New_Symbol_18_">
</g>
<g id="New_Symbol_17_">
</g>
<g id="New_Symbol_16_">
</g>
<g id="New_Symbol_15_">
</g>
<g id="New_Symbol_14_">
</g>
<g id="New_Symbol_13_">
</g>
<g id="New_Symbol_12_">
</g>
<g id="New_Symbol_11_">
</g>
<g id="New_Symbol_10_">
</g>
<g id="New_Symbol_9_">
</g>
<path class="st0" d="M-2951.6,1504.6"/>
<g id="New_Symbol_8_">
</g>
<g id="New_Symbol_7_">
</g>
<path class="st1" d="M88.5,25.2l21.2,27.6L94,24.5c1.6-0.8,8.3-2.5,8.3-10.5c0-7-5.2-8.6-9.9-8.9c-2-0.1-13-0.1-13-0.1v0.8h4.5v39
	h-0.9l-10-40.7L53.4,61.1l0.3,0.2l12.5-32.4h8.2l3.7,16h-4.3v0.8h18.2v-0.8h-3.7V25.2z M88.5,6.3c1.1,0,9-1.3,9,8.1
	c0,8.2-6.5,10.4-9,10.5V6.3z M66.7,27.6l4.6-11.3l2.8,11.3H66.7z"/>
<path class="st1" d="M170.6,25.2l24.3,32.4l-18.9-33c1.6-0.8,8.3-2.5,8.3-10.5c0-7-5.2-8.6-9.9-8.9c-2-0.1-13-0.1-13-0.1v0.8h4.5v39
	h-4.5v0.8h4.5v0h4.6v0h4.5v-0.8h-4.5V25.2z M170.5,6.3c1.1,0,9-1.3,9,8.1c0,8.2-6.5,10.4-9,10.5V6.3z"/>
<path class="st1" d="M109.4,25.2l21.2,27.6l-15.7-28.2c1.6-0.8,8.3-2.5,8.3-10.5c0-7-5.2-8.6-9.9-8.9c-2-0.1-13-0.1-13-0.1v0.8h4.5
	v39.8h4.6v0h4.5v-0.8h-4.5V25.2z M109.5,6.4c1.1,0,9-1.3,9,8.1c0,8.2-6.5,10.4-9,10.5V6.4z"/>
<path class="st1" d="M148.7,4.5c7.9,0,14.4,9.4,14.4,21c0,11.6-6.4,21-14.4,21c-7.9,0-14.4-9.4-14.4-21
	C134.3,13.9,140.7,4.5,148.7,4.5 M139.5,25.5c0,10.9,4.1,19.8,9.1,19.8c5,0,9.1-8.9,9.1-19.8c0-10.9-4.1-19.8-9.1-19.8
	C143.6,5.7,139.5,14.5,139.5,25.5"/>
<path class="st1" d="M238.6,5v17.5h1.1c0-12.6,3.1-16.3,7.5-16.3v38.7h-4.5v0.8h11.6h0.6v-0.8h-0.6h-2.4V6.2c4.4,0,7.5,3.7,7.5,16.3
	h1.1V5H238.6z"/>
<path class="st1" d="M238.6,5v17.5h1.1c0-12.6,3.1-16.3,7.5-16.3v38.7h-4.5v0.8h11.6h0.6v-0.8h-0.6h-2.4V6.2c4.4,0,7.5,3.7,7.5,16.3
	h1.1V5H238.6z"/>
<path class="st1" d="M291,44.3c0-7.7-4.2-12.8-14.2-18.4c-12.1-6.7-10.2-13.5-7-16.9c1.6-1.6,3.6-2.4,6-2.4c0.1,0,0.2,0,0.2,0
	c9.5,0,7.7,14.2,7.7,14.2h0.8V1h-0.8v1.3c0,2-1.5,2.4-4,2.3c-2.3-0.1-5.3-0.7-9.2,1.2c-10.2,4.9-12.6,18.5,4.5,28
	c8.1,4.5,10.5,8.1,10.5,13.8c0,5.7-6.5,13.6-16.6,13.6c-9,0-12.7-9.3-13.3-16.5c-0.3-3.9-0.3-7.2-0.3-7.2h-0.8l-0.1,28.2l0.4,0.1
	c0,0,0.8-2.8,1.9-6c2,1.5,7.5,3.4,11.5,3.4c8.8,0,12.3-2.2,16.1-5.6C288.9,53.7,291,49.1,291,44.3"/>
<path class="st1" d="M241.7,44.8l-10-40.7l-16.5,48.6l0.3,0.2l9.3-24.1h8.2l3.7,16h-4.3v0.8h11.5l0.1-0.8H241.7z M225.4,27.6
	l4.6-11.3l2.8,11.3H225.4z"/>
<polygon class="st1" points="135.8,5.9 135.8,5 122.2,5 122.2,5.9 126.7,5.9 126.7,44.9 125.9,44.9 125.9,45.7 135.8,45.7 
	135.8,44.9 131.3,44.9 131.3,5.9 "/>
<path class="st1" d="M220.3,4.9c-2.1,0-3.7-0.9-6.8-0.9C205,4,195,12.4,195,29.7c0,19.7,10.8,33.5,24.7,33.5
	c8.9,0,13.8-10.7,13.8-14l-1.5,0.1c0,0-3,12.4-12.1,12.4c-12,0-18.4-20.3-18.4-31.7c0-9.9,4.6-23.8,11.8-23.8
	c5.7,0,9.9,2.6,9.9,16.4h0.8l0-21.4h-0.8C223.2,4.2,222.1,4.9,220.3,4.9"/>
<polygon class="st1" points="69,5 56.8,5 56.8,5.9 61.1,5.9 52.1,45.6 41.9,5.9 46.1,5.9 46.1,5 29.6,5 29.6,5.9 34.3,5.9 24.7,46 
	14.3,5.9 18.8,5.9 18.8,5 2.5,5 2.5,5.9 6.9,5.9 21.9,63.5 36.2,12.3 49.3,63.5 64.8,5.9 69,5.9 "/>
<linearGradient id="SVGID_1_" gradientUnits="userSpaceOnUse" x1="81.581" y1="4.2029" x2="81.581" y2="61.2713">
	<stop  offset="0" style="stop-color:#FCB652"/>
	<stop  offset="1" style="stop-color:#FB934D"/>
</linearGradient>
<path class="st2" d="M88.5,25.2l21.2,27.6L94,24.5c1.6-0.8,8.3-2.5,8.3-10.5c0-7-5.2-8.6-9.9-8.9c-2-0.1-13-0.1-13-0.1v0.8h4.5v39
	h-0.9l-10-40.7L53.4,61.1l0.3,0.2l12.5-32.4h8.2l3.7,16h-4.3v0.8h18.2v-0.8h-3.7V25.2z M88.5,6.3c1.1,0,9-1.3,9,8.1
	c0,8.2-6.5,10.4-9,10.5V6.3z M66.7,27.6l4.6-11.3l2.8,11.3H66.7z"/>
<linearGradient id="SVGID_2_" gradientUnits="userSpaceOnUse" x1="178.211" y1="5.0339" x2="178.211" y2="57.582">
	<stop  offset="0" style="stop-color:#FCB652"/>
	<stop  offset="1" style="stop-color:#FB934D"/>
</linearGradient>
<path class="st3" d="M170.6,25.2l24.3,32.4l-18.9-33c1.6-0.8,8.3-2.5,8.3-10.5c0-7-5.2-8.6-9.9-8.9c-2-0.1-13-0.1-13-0.1v0.8h4.5v39
	h-4.5v0.8h4.5v0h4.6v0h4.5v-0.8h-4.5V25.2z M170.5,6.3c1.1,0,9-1.3,9,8.1c0,8.2-6.5,10.4-9,10.5V6.3z"/>
<linearGradient id="SVGID_3_" gradientUnits="userSpaceOnUse" x1="115.4816" y1="5.0339" x2="115.4816" y2="52.7839">
	<stop  offset="0" style="stop-color:#FCB652"/>
	<stop  offset="1" style="stop-color:#FB934D"/>
</linearGradient>
<path class="st4" d="M109.4,25.2l21.2,27.6l-15.7-28.2c1.6-0.8,8.3-2.5,8.3-10.5c0-7-5.2-8.6-9.9-8.9c-2-0.1-13-0.1-13-0.1v0.8h4.5
	v39.8h4.6v0h4.5v-0.8h-4.5V25.2z M109.5,6.4c1.1,0,9-1.3,9,8.1c0,8.2-6.5,10.4-9,10.5V6.4z"/>
<linearGradient id="SVGID_4_" gradientUnits="userSpaceOnUse" x1="148.6606" y1="4.4752" x2="148.6606" y2="46.4674">
	<stop  offset="0" style="stop-color:#FCB652"/>
	<stop  offset="1" style="stop-color:#FB934D"/>
</linearGradient>
<path class="st5" d="M148.7,4.5c7.9,0,14.4,9.4,14.4,21c0,11.6-6.4,21-14.4,21c-7.9,0-14.4-9.4-14.4-21
	C134.3,13.9,140.7,4.5,148.7,4.5 M139.5,25.5c0,10.9,4.1,19.8,9.1,19.8c5,0,9.1-8.9,9.1-19.8c0-10.9-4.1-19.8-9.1-19.8
	C143.6,5.7,139.5,14.5,139.5,25.5"/>
<linearGradient id="SVGID_5_" gradientUnits="userSpaceOnUse" x1="249.4861" y1="5.0335" x2="249.4861" y2="45.6762">
	<stop  offset="0" style="stop-color:#FCB652"/>
	<stop  offset="1" style="stop-color:#FB934D"/>
</linearGradient>
<path class="st6" d="M238.6,5v17.5h1.1c0-12.6,3.1-16.3,7.5-16.3v38.7h-4.5v0.8h11.6h0.6v-0.8h-0.6h-2.4V6.2c4.4,0,7.5,3.7,7.5,16.3
	h1.1V5H238.6z"/>
<linearGradient id="SVGID_6_" gradientUnits="userSpaceOnUse" x1="249.4861" y1="5.0335" x2="249.4861" y2="45.6762">
	<stop  offset="0" style="stop-color:#FCB652"/>
	<stop  offset="1" style="stop-color:#FB934D"/>
</linearGradient>
<path class="st7" d="M238.6,5v17.5h1.1c0-12.6,3.1-16.3,7.5-16.3v38.7h-4.5v0.8h11.6h0.6v-0.8h-0.6h-2.4V6.2c4.4,0,7.5,3.7,7.5,16.3
	h1.1V5H238.6z"/>
<linearGradient id="SVGID_7_" gradientUnits="userSpaceOnUse" x1="272.8212" y1="1" x2="272.8212" y2="65.6935">
	<stop  offset="0" style="stop-color:#FCB652"/>
	<stop  offset="1" style="stop-color:#FB934D"/>
</linearGradient>
<path class="st8" d="M291,44.3c0-7.7-4.2-12.8-14.2-18.4c-12.1-6.7-10.2-13.5-7-16.9c1.6-1.6,3.6-2.4,6-2.4c0.1,0,0.2,0,0.2,0
	c9.5,0,7.7,14.2,7.7,14.2h0.8V1h-0.8v1.3c0,2-1.5,2.4-4,2.3c-2.3-0.1-5.3-0.7-9.2,1.2c-10.2,4.9-12.6,18.5,4.5,28
	c8.1,4.5,10.5,8.1,10.5,13.8c0,5.7-6.5,13.6-16.6,13.6c-9,0-12.7-9.3-13.3-16.5c-0.3-3.9-0.3-7.2-0.3-7.2h-0.8l-0.1,28.2l0.4,0.1
	c0,0,0.8-2.8,1.9-6c2,1.5,7.5,3.4,11.5,3.4c8.8,0,12.3-2.2,16.1-5.6C288.9,53.7,291,49.1,291,44.3"/>
<linearGradient id="SVGID_8_" gradientUnits="userSpaceOnUse" x1="229.7147" y1="4.1766" x2="229.7147" y2="52.9318">
	<stop  offset="0" style="stop-color:#FCB652"/>
	<stop  offset="1" style="stop-color:#FB934D"/>
</linearGradient>
<path class="st9" d="M241.7,44.8l-10-40.7l-16.5,48.6l0.3,0.2l9.3-24.1h8.2l3.7,16h-4.3v0.8h11.5l0.1-0.8H241.7z M225.4,27.6
	l4.6-11.3l2.8,11.3H225.4z"/>
<linearGradient id="SVGID_9_" gradientUnits="userSpaceOnUse" x1="128.9794" y1="5.0335" x2="128.9794" y2="45.7067">
	<stop  offset="0" style="stop-color:#FCB652"/>
	<stop  offset="1" style="stop-color:#FB934D"/>
</linearGradient>
<polygon class="st10" points="135.8,5.9 135.8,5 122.2,5 122.2,5.9 126.7,5.9 126.7,44.9 125.9,44.9 125.9,45.7 135.8,45.7 
	135.8,44.9 131.3,44.9 131.3,5.9 "/>
<linearGradient id="SVGID_10_" gradientUnits="userSpaceOnUse" x1="214.2391" y1="1.2545" x2="214.2391" y2="63.2704">
	<stop  offset="0" style="stop-color:#FCB652"/>
	<stop  offset="1" style="stop-color:#FB934D"/>
</linearGradient>
<path class="st11" d="M220.3,4.9c-2.1,0-3.7-0.9-6.8-0.9C205,4,195,12.4,195,29.7c0,19.7,10.8,33.5,24.7,33.5
	c8.9,0,13.8-10.7,13.8-14l-1.5,0.1c0,0-3,12.4-12.1,12.4c-12,0-18.4-20.3-18.4-31.7c0-9.9,4.6-23.8,11.8-23.8
	c5.7,0,9.9,2.6,9.9,16.4h0.8l0-21.4h-0.8C223.2,4.2,222.1,4.9,220.3,4.9"/>
<linearGradient id="SVGID_11_" gradientUnits="userSpaceOnUse" x1="35.7225" y1="5.0427" x2="35.7225" y2="63.5241">
	<stop  offset="0" style="stop-color:#FCB652"/>
	<stop  offset="1" style="stop-color:#FB934D"/>
</linearGradient>
<polygon class="st12" points="69,5 56.8,5 56.8,5.9 61.1,5.9 52.1,45.6 41.9,5.9 46.1,5.9 46.1,5 29.6,5 29.6,5.9 34.3,5.9 24.7,46 
	14.3,5.9 18.8,5.9 18.8,5 2.5,5 2.5,5.9 6.9,5.9 21.9,63.5 36.2,12.3 49.3,63.5 64.8,5.9 69,5.9 "/>
</svg>
