<svg width="92" height="40" viewBox="0 0 92 40" fill="none" xmlns="http://www.w3.org/2000/svg"> <g clip-path="url(#clip0)"> <path d="M81.5819 25.7896H87.8838V23.0495H81.5819V25.7896ZM81.5819 31.7673H87.8838V28.7785H81.5819V31.7673ZM92.002 14.3995L88.0175 11.3346V6.66632H84.0125V8.40948L73.3332 0L54.9072 14.3995L58.9122 14.5331V20.0606H63.4976L66.8852 29.65H66.9264L70.3428 20.0606H75.2266V34.7582H71.9892V23.4853H71.9481L68.0789 34.7582H65.6092L61.8882 23.4853H61.8471V34.7582H58.9246V40H87.8838V34.7582H78.3405V20.0606H87.8838V14.3995H92.002Z" fill="#1E5EF8"></path> <path d="M49.5028 28.6018C49.5852 27.6253 50.3261 26.6921 51.705 26.6921C51.9578 26.6859 52.2092 26.731 52.4439 26.8248C52.6787 26.9186 52.892 27.059 53.0708 27.2376C53.2496 27.4162 53.3902 27.6292 53.484 27.8637C53.5779 28.0982 53.6231 28.3493 53.6169 28.6018H49.5028ZM54.0841 31.4447C53.5655 32.1497 52.8801 32.678 51.8614 32.678C50.6554 32.678 49.7622 31.9092 49.5131 30.7272H56.7452V29.7508C56.7452 26.5338 54.9156 24.4577 52.0116 24.4577C48.8937 24.4577 46.3993 26.5338 46.3993 29.7508C46.3993 32.9679 48.8937 35.044 52.0116 35.044C52.8251 35.0481 53.6294 34.8715 54.3662 34.527C55.103 34.1825 55.7539 33.6787 56.2718 33.0521L54.0841 31.4447ZM45.1274 25.7774C44.193 24.7824 42.7174 24.4494 41.3879 24.4494C39.268 24.4494 37.1482 25.4875 37.1482 27.8535C37.1482 31.6934 42.4045 30.3202 42.4045 31.9421C42.4045 32.4827 41.6986 32.6698 40.9927 32.6698C40.0563 32.6698 39.3709 32.2751 38.7885 31.57L36.8992 33.6668C37.8953 34.6822 39.4553 35.0358 40.8672 35.0358C43.0281 35.0358 45.5225 34.2896 45.5225 31.7139C45.5225 27.8741 40.2642 29.1403 40.2642 27.6459C40.2642 27.0436 40.8816 26.8237 41.4084 26.8237C41.7552 26.8153 42.099 26.8879 42.4127 27.0356C42.7264 27.1834 43.0013 27.4022 43.2154 27.6747L45.1274 25.7774ZM35.7137 24.6982H32.5855V29.7221C32.5855 31.0294 32.3364 32.2957 30.7167 32.2957C29.097 32.2957 29.095 30.8012 29.095 29.6398V24.7064H25.977V30.2709C25.977 32.9679 26.5594 35.044 29.7186 35.044C31.2354 35.044 32.2541 34.2218 32.6699 33.4242H32.711V34.7953H35.7035L35.7137 24.6982ZM16.8865 29.7426C16.8865 28.2276 17.8209 27.1895 19.3788 27.1895C20.9368 27.1895 21.8732 28.2174 21.8732 29.7426C21.8732 31.2679 20.9388 32.2957 19.3788 32.2957C17.8188 32.2957 16.8865 31.2679 16.8865 29.7426ZM13.7685 29.7426C13.7685 32.9596 16.2629 35.0358 19.3788 35.0358C22.4947 35.0358 24.9912 32.9596 24.9912 29.7426C24.9912 26.5256 22.4865 24.4433 19.3685 24.4433C16.2505 24.4433 13.7582 26.5194 13.7582 29.7364L13.7685 29.7426ZM0 34.7871H3.2497V28.4352H9.53917V34.7871H12.7806V20.0915H9.53917V25.5697H3.2497V20.0915H0V34.7871Z" fill="#1C2229"></path> </g> <defs> <clipPath id="clip0"> <path d="M0 0H92V40H0V0Z" fill="white"></path> </clipPath> </defs> </svg>